{
  "accessors": [
    {
      "bufferView": 2,
      "componentType": 5126,
      "count": 65532,
      "max": [
        1.3013839721679688,
        1.853464961051941,
        3.140594959259033
      ],
      "min": [
        -1.2693140506744385,
        -4.353359222412109,
        0.11217900365591049
      ],
      "type": "VEC3"
    },
    {
      "bufferView": 2,
      "byteOffset": 786384,
      "componentType": 5126,
      "count": 65532,
      "max": [
        0.999989926815033,
        0.9998780488967896,
        0.9999974966049194
      ],
      "min": [
        -0.9999951124191284,
        -0.9996641278266907,
        -1.0
      ],
      "type": "VEC3"
    },
    {
      "bufferView": 3,
      "componentType": 5126,
      "count": 65532,
      "max": [
        0.9994928240776062,
        0.9999969601631165,
        0.9995200634002686,
        1.0
      ],
      "min": [
        -0.9999988079071045,
        -0.9999011158943176,
        -0.9998603463172913,
        -1.0
      ],
      "type": "VEC4"
    },
    {
      "bufferView": 1,
      "componentType": 5126,
      "count": 65532,
      "max": [
        0.9719700217247009,
        0.9999560117721558
      ],
      "min": [
        1.5999999959603883e-05,
        3.999999989900971e-06
      ],
      "type": "VEC2"
    },
    {
      "bufferView": 0,
      "componentType": 5125,
      "count": 344223,
      "type": "SCALAR"
    },
    {
      "bufferView": 2,
      "byteOffset": 1572768,
      "componentType": 5126,
      "count": 47641,
      "max": [
        1.26009202003479,
        2.1528680324554443,
        3.1436750888824463
      ],
      "min": [
        -1.1144839525222778,
        -2.6001789569854736,
        0.12418899685144424
      ],
      "type": "VEC3"
    },
    {
      "bufferView": 2,
      "byteOffset": 2144460,
      "componentType": 5126,
      "count": 47641,
      "max": [
        0.9999910593032837,
        0.9998472332954407,
        0.9999813437461853
      ],
      "min": [
        -0.9999772906303406,
        -0.9999811053276062,
        -0.9999999403953552
      ],
      "type": "VEC3"
    },
    {
      "bufferView": 3,
      "byteOffset": 1048512,
      "componentType": 5126,
      "count": 47641,
      "max": [
        0.9999561309814453,
        0.9999991655349731,
        0.9999289512634277,
        1.0
      ],
      "min": [
        -0.9999962449073792,
        -0.9999549388885498,
        -0.9930317401885986,
        -1.0
      ],
      "type": "VEC4"
    },
    {
      "bufferView": 1,
      "byteOffset": 524256,
      "componentType": 5126,
      "count": 47641,
      "max": [
        0.9427940249443054,
        0.9959049820899963
      ],
      "min": [
        0.016452999785542488,
        5.2999999752501026e-05
      ],
      "type": "VEC2"
    },
    {
      "bufferView": 0,
      "byteOffset": 1376892,
      "componentType": 5125,
      "count": 242082,
      "type": "SCALAR"
    }
  ],
  "asset": {
    "extras": {
      "author": "Lassi Kaukonen (https://sketchfab.com/thesidekick)",
      "license": "CC-BY-4.0 (http://creativecommons.org/licenses/by/4.0/)",
      "source": "https://sketchfab.com/3d-models/sievi-racer-safety-shoe-b4bbf2116b1a41a5a3b9d3622b07074c",
      "title": "Sievi Racer safety shoe"
    },
    "generator": "Sketchfab-11.78.0",
    "version": "2.0"
  },
  "bufferViews": [
    {
      "buffer": 0,
      "byteLength": 2345220,
      "name": "floatBufferViews",
      "target": 34963
    },
    {
      "buffer": 0,
      "byteLength": 905384,
      "byteOffset": 2345220,
      "byteStride": 8,
      "name": "floatBufferViews",
      "target": 34962
    },
    {
      "buffer": 0,
      "byteLength": 2716152,
      "byteOffset": 3250604,
      "byteStride": 12,
      "name": "floatBufferViews",
      "target": 34962
    },
    {
      "buffer": 0,
      "byteLength": 1810768,
      "byteOffset": 5966756,
      "byteStride": 16,
      "name": "floatBufferViews",
      "target": 34962
    }
  ],
  "buffers": [
    {
      "byteLength": 7777524,
      "uri": "scene.bin"
    }
  ],
  "images": [
    {
      "uri": "textures/Sievi_Racer_safety_shoe_baseColor.jpeg"
    },
    {
      "uri": "textures/Sievi_Racer_safety_shoe_metallicRoughness.png"
    },
    {
      "uri": "textures/Sievi_Racer_safety_shoe_normal.png"
    }
  ],
  "materials": [
    {
      "doubleSided": true,
      "emissiveFactor": [
        0.685952900687701,
        0.685952900687701,
        0.685952900687701
      ],
      "emissiveTexture": {
        "index": 0
      },
      "name": "Sievi_Racer_safety_shoe",
      "normalTexture": {
        "index": 2
      },
      "occlusionTexture": {
        "index": 1
      },
      "pbrMetallicRoughness": {
        "baseColorTexture": {
          "index": 0
        },
        "metallicFactor": 0.0,
        "metallicRoughnessTexture": {
          "index": 1
        },
        "roughnessFactor": 0.7368297043067962
      }
    }
  ],
  "meshes": [
    {
      "name": "Object_0",
      "primitives": [
        {
          "attributes": {
            "NORMAL": 1,
            "POSITION": 0,
            "TANGENT": 2,
            "TEXCOORD_0": 3
          },
          "indices": 4,
          "material": 0,
          "mode": 4
        }
      ]
    },
    {
      "name": "Object_1",
      "primitives": [
        {
          "attributes": {
            "NORMAL": 6,
            "POSITION": 5,
            "TANGENT": 7,
            "TEXCOORD_0": 8
          },
          "indices": 9,
          "material": 0,
          "mode": 4
        }
      ]
    }
  ],
  "nodes": [
    {
      "children": [
        1
      ],
      "matrix": [
        1.0,
        0.0,
        0.0,
        0.0,
        0.0,
        2.220446049250313e-16,
        -1.0,
        0.0,
        0.0,
        1.0,
        2.220446049250313e-16,
        0.0,
        0.0,
        0.0,
        0.0,
        1.0
      ],
      "name": "Sketchfab_model"
    },
    {
      "children": [
        2,
        3
      ],
      "name": "Sievi_Racer_safety_shoe_SF.obj.cleaner.materialmerger.gles"
    },
    {
      "mesh": 0,
      "name": "Object_2"
    },
    {
      "mesh": 1,
      "name": "Object_3"
    }
  ],
  "samplers": [
    {
      "magFilter": 9729,
      "minFilter": 9987,
      "wrapS": 10497,
      "wrapT": 10497
    }
  ],
  "scene": 0,
  "scenes": [
    {
      "name": "Sketchfab_Scene",
      "nodes": [
        0
      ]
    }
  ],
  "textures": [
    {
      "sampler": 0,
      "source": 0
    },
    {
      "sampler": 0,
      "source": 1
    },
    {
      "sampler": 0,
      "source": 2
    }
  ]
}
