{
  "accessors": [
    {
      "bufferView": 2,
      "componentType": 5126,
      "count": 64,
      "max": [
        1.1459625959396362,
        1.0,
        0.7092580199241638
      ],
      "min": [
        -1.1459625959396362,
        -1.0,
        -0.7092580199241638
      ],
      "type": "VEC3"
    },
    {
      "bufferView": 2,
      "byteOffset": 768,
      "componentType": 5126,
      "count": 64,
      "max": [
        1.0,
        1.0,
        1.0
      ],
      "min": [
        -1.0,
        -1.0,
        -1.0
      ],
      "type": "VEC3"
    },
    {
      "bufferView": 1,
      "componentType": 5126,
      "count": 64,
      "max": [
        0.9995089173316956,
        0.9355899095535278
      ],
      "min": [
        0.0004910543211735785,
        0.0004910543211735785
      ],
      "type": "VEC2"
    },
    {
      "bufferView": 0,
      "componentType": 5125,
      "count": 132,
      "type": "SCALAR"
    },
    {
      "bufferView": 2,
      "byteOffset": 1536,
      "componentType": 5126,
      "count": 240,
      "max": [
        1.597639799118042,
        0.9949283599853516,
        0.1834295094013214
      ],
      "min": [
        -0.05774516612291336,
        -0.10879683494567871,
        -0.9039685726165771
      ],
      "type": "VEC3"
    },
    {
      "bufferView": 2,
      "byteOffset": 4416,
      "componentType": 5126,
      "count": 240,
      "max": [
        1.0,
        1.0,
        1.0
      ],
      "min": [
        -1.0,
        -1.0,
        -1.0
      ],
      "type": "VEC3"
    },
    {
      "bufferView": 1,
      "byteOffset": 512,
      "componentType": 5126,
      "count": 240,
      "max": [
        0.9532121419906616,
        0.9726675748825073
      ],
      "min": [
        0.0004910543211735785,
        0.21866627037525177
      ],
      "type": "VEC2"
    },
    {
      "bufferView": 0,
      "byteOffset": 528,
      "componentType": 5125,
      "count": 360,
      "type": "SCALAR"
    },
    {
      "bufferView": 2,
      "byteOffset": 7296,
      "componentType": 5126,
      "count": 51,
      "max": [
        0.05517646297812462,
        -0.006254080682992935,
        0.2526492476463318
      ],
      "min": [
        -0.05517646297812462,
        -0.21182496845722198,
        -0.07461079955101013
      ],
      "type": "VEC3"
    },
    {
      "bufferView": 2,
      "byteOffset": 7908,
      "componentType": 5126,
      "count": 51,
      "max": [
        1.0,
        0.9537240862846375,
        1.0
      ],
      "min": [
        -1.0,
        -0.9198924899101257,
        -1.0
      ],
      "type": "VEC3"
    },
    {
      "bufferView": 1,
      "byteOffset": 2432,
      "componentType": 5126,
      "count": 51,
      "max": [
        0.875,
        1.0
      ],
      "min": [
        0.125,
        0.0
      ],
      "type": "VEC2"
    },
    {
      "bufferView": 0,
      "byteOffset": 1968,
      "componentType": 5125,
      "count": 108,
      "type": "SCALAR"
    },
    {
      "bufferView": 2,
      "byteOffset": 8520,
      "componentType": 5126,
      "count": 1006,
      "max": [
        0.26438185572624207,
        0.26438185572624207,
        0.03323594853281975
      ],
      "min": [
        -0.26438185572624207,
        -0.26438185572624207,
        -0.042296115309000015
      ],
      "type": "VEC3"
    },
    {
      "bufferView": 2,
      "byteOffset": 20592,
      "componentType": 5126,
      "count": 1006,
      "max": [
        0.9439465403556824,
        0.9439468383789063,
        1.0
      ],
      "min": [
        -0.9439465403556824,
        -0.9439465999603271,
        -1.0
      ],
      "type": "VEC3"
    },
    {
      "bufferView": 1,
      "byteOffset": 2840,
      "componentType": 5126,
      "count": 1006,
      "max": [
        1.0,
        1.0
      ],
      "min": [
        6.705522537231445e-07,
        0.01000000536441803
      ],
      "type": "VEC2"
    },
    {
      "bufferView": 0,
      "byteOffset": 2400,
      "componentType": 5125,
      "count": 2988,
      "type": "SCALAR"
    },
    {
      "bufferView": 2,
      "byteOffset": 32664,
      "componentType": 5126,
      "count": 128,
      "max": [
        0.794191300868988,
        -0.040504369884729385,
        0.8329020738601685
      ],
      "min": [
        -0.794191300868988,
        -0.1230282187461853,
        -0.1230282187461853
      ],
      "type": "VEC3"
    },
    {
      "bufferView": 2,
      "byteOffset": 34200,
      "componentType": 5126,
      "count": 128,
      "max": [
        1.0,
        0.6146865487098694,
        1.0
      ],
      "min": [
        -1.0,
        -1.0,
        -1.0
      ],
      "type": "VEC3"
    },
    {
      "bufferView": 1,
      "byteOffset": 10888,
      "componentType": 5126,
      "count": 128,
      "max": [
        0.875,
        1.0
      ],
      "min": [
        0.125,
        0.0
      ],
      "type": "VEC2"
    },
    {
      "bufferView": 0,
      "byteOffset": 14352,
      "componentType": 5125,
      "count": 246,
      "type": "SCALAR"
    },
    {
      "bufferView": 2,
      "byteOffset": 35736,
      "componentType": 5126,
      "count": 88,
      "max": [
        0.794191300868988,
        -0.040504369884729385,
        0.8329020738601685
      ],
      "min": [
        -0.794191300868988,
        -0.1440151184797287,
        -0.1230282187461853
      ],
      "type": "VEC3"
    },
    {
      "bufferView": 2,
      "byteOffset": 36792,
      "componentType": 5126,
      "count": 88,
      "max": [
        1.0,
        1.0,
        1.0
      ],
      "min": [
        -1.0,
        -1.0,
        -1.0
      ],
      "type": "VEC3"
    },
    {
      "bufferView": 1,
      "byteOffset": 11912,
      "componentType": 5126,
      "count": 88,
      "max": [
        0.625,
        1.0
      ],
      "min": [
        0.125,
        0.0
      ],
      "type": "VEC2"
    },
    {
      "bufferView": 0,
      "byteOffset": 15336,
      "componentType": 5125,
      "count": 216,
      "type": "SCALAR"
    },
    {
      "bufferView": 2,
      "byteOffset": 37848,
      "componentType": 5126,
      "count": 4,
      "max": [
        0.764981210231781,
        -0.1230282187461853,
        0.8238815665245056
      ],
      "min": [
        -0.7566073536872864,
        -0.1230282187461853,
        -0.026060117408633232
      ],
      "type": "VEC3"
    },
    {
      "bufferView": 2,
      "byteOffset": 37896,
      "componentType": 5126,
      "count": 4,
      "max": [
        0.0,
        -1.0,
        0.0
      ],
      "min": [
        0.0,
        -1.0,
        0.0
      ],
      "type": "VEC3"
    },
    {
      "bufferView": 1,
      "byteOffset": 12616,
      "componentType": 5126,
      "count": 4,
      "max": [
        0.9377715587615967,
        1.0032060146331787
      ],
      "min": [
        0.07359323650598526,
        -0.007660269737243652
      ],
      "type": "VEC2"
    },
    {
      "bufferView": 0,
      "byteOffset": 16200,
      "componentType": 5125,
      "count": 6,
      "type": "SCALAR"
    },
    {
      "bufferView": 2,
      "byteOffset": 37944,
      "componentType": 5126,
      "count": 205,
      "max": [
        0.18571655452251434,
        0.05960526689887047,
        0.0
      ],
      "min": [
        0.0,
        -0.0007763348403386772,
        0.0
      ],
      "type": "VEC3"
    },
    {
      "bufferView": 2,
      "byteOffset": 40404,
      "componentType": 5126,
      "count": 205,
      "max": [
        0.0,
        0.0,
        1.0
      ],
      "min": [
        0.0,
        0.0,
        1.0
      ],
      "type": "VEC3"
    },
    {
      "bufferView": 1,
      "byteOffset": 12648,
      "componentType": 5126,
      "count": 205,
      "max": [
        1.0,
        0.0
      ],
      "min": [
        0.0,
        0.0
      ],
      "type": "VEC2"
    },
    {
      "bufferView": 0,
      "byteOffset": 16224,
      "componentType": 5125,
      "count": 609,
      "type": "SCALAR"
    },
    {
      "bufferView": 2,
      "byteOffset": 42864,
      "componentType": 5126,
      "count": 151,
      "max": [
        0.07099806517362595,
        0.10608125478029251,
        0.0400472991168499
      ],
      "min": [
        -0.09994959831237793,
        -0.22465360164642334,
        -0.07099806517362595
      ],
      "type": "VEC3"
    },
    {
      "bufferView": 2,
      "byteOffset": 44676,
      "componentType": 5126,
      "count": 151,
      "max": [
        1.0,
        1.0,
        1.0
      ],
      "min": [
        -1.0,
        -1.0,
        -1.0
      ],
      "type": "VEC3"
    },
    {
      "bufferView": 1,
      "byteOffset": 14288,
      "componentType": 5126,
      "count": 151,
      "max": [
        0.8601862788200378,
        1.0
      ],
      "min": [
        0.125,
        0.0
      ],
      "type": "VEC2"
    },
    {
      "bufferView": 0,
      "byteOffset": 18660,
      "componentType": 5125,
      "count": 354,
      "type": "SCALAR"
    },
    {
      "bufferView": 2,
      "byteOffset": 46488,
      "componentType": 5126,
      "count": 836,
      "max": [
        0.02160755917429924,
        0.027515625581145287,
        0.010672012344002724
      ],
      "min": [
        -0.023843979462981224,
        -0.028256922960281372,
        -0.010672012344002724
      ],
      "type": "VEC3"
    },
    {
      "bufferView": 2,
      "byteOffset": 56520,
      "componentType": 5126,
      "count": 836,
      "max": [
        1.0,
        1.0,
        0.7837823033332825
      ],
      "min": [
        -1.0,
        -1.0,
        -0.7837826609611511
      ],
      "type": "VEC3"
    },
    {
      "bufferView": 1,
      "byteOffset": 15496,
      "componentType": 5126,
      "count": 836,
      "max": [
        1.0,
        1.0
      ],
      "min": [
        6.705522537231445e-07,
        0.5
      ],
      "type": "VEC2"
    },
    {
      "bufferView": 0,
      "byteOffset": 20076,
      "componentType": 5125,
      "count": 2400,
      "type": "SCALAR"
    },
    {
      "bufferView": 2,
      "byteOffset": 66552,
      "componentType": 5126,
      "count": 402,
      "max": [
        0.02160755917429924,
        0.027515625581145287,
        0.010672012344002724
      ],
      "min": [
        -0.023843979462981224,
        -0.028256922960281372,
        -0.010672012344002724
      ],
      "type": "VEC3"
    },
    {
      "bufferView": 2,
      "byteOffset": 71376,
      "componentType": 5126,
      "count": 402,
      "max": [
        1.0,
        1.0,
        1.0
      ],
      "min": [
        -1.0,
        -1.0,
        -1.0
      ],
      "type": "VEC3"
    },
    {
      "bufferView": 1,
      "byteOffset": 22184,
      "componentType": 5126,
      "count": 402,
      "max": [
        1.0,
        0.8333333730697632
      ],
      "min": [
        6.705522537231445e-07,
        0.01000000536441803
      ],
      "type": "VEC2"
    },
    {
      "bufferView": 0,
      "byteOffset": 29676,
      "componentType": 5125,
      "count": 1188,
      "type": "SCALAR"
    },
    {
      "bufferView": 2,
      "byteOffset": 76200,
      "componentType": 5126,
      "count": 10230,
      "max": [
        0.07397278398275375,
        0.005671069025993347,
        0.7705638408660889
      ],
      "min": [
        -0.40373891592025757,
        -0.005696841981261969,
        -0.2634783387184143
      ],
      "type": "VEC3"
    },
    {
      "bufferView": 2,
      "byteOffset": 198960,
      "componentType": 5126,
      "count": 10230,
      "max": [
        0.9988693594932556,
        1.0,
        0.9660711884498596
      ],
      "min": [
        -0.9988678097724915,
        -0.9954725503921509,
        -0.8471471071243286
      ],
      "type": "VEC3"
    },
    {
      "bufferView": 1,
      "byteOffset": 25400,
      "componentType": 5126,
      "count": 10230,
      "max": [
        1.0,
        1.0
      ],
      "min": [
        4.4703472212859197e-07,
        0.011086732149124146
      ],
      "type": "VEC2"
    },
    {
      "bufferView": 0,
      "byteOffset": 34428,
      "componentType": 5125,
      "count": 15432,
      "type": "SCALAR"
    }
  ],
  "asset": {
    "extras": {
      "author": "Nafta (https://sketchfab.com/Nafta)",
      "license": "CC-BY-4.0 (http://creativecommons.org/licenses/by/4.0/)",
      "source": "https://sketchfab.com/3d-models/monkey-in-the-monitor-57424cb6a4b14f169c2605d1e7d41ef2",
      "title": "Monkey in the monitor"
    },
    "generator": "Sketchfab-11.79.0",
    "version": "2.0"
  },
  "bufferViews": [
    {
      "buffer": 0,
      "byteLength": 96156,
      "name": "floatBufferViews",
      "target": 34963
    },
    {
      "buffer": 0,
      "byteLength": 107240,
      "byteOffset": 96156,
      "byteStride": 8,
      "name": "floatBufferViews",
      "target": 34962
    },
    {
      "buffer": 0,
      "byteLength": 321720,
      "byteOffset": 203396,
      "byteStride": 12,
      "name": "floatBufferViews",
      "target": 34962
    }
  ],
  "buffers": [
    {
      "byteLength": 525116,
      "uri": "scene.bin"
    }
  ],
  "images": [
    {
      "uri": "textures/Material.001_baseColor.jpeg"
    },
    {
      "uri": "textures/Material.006_baseColor.png"
    }
  ],
  "materials": [
    {
      "doubleSided": true,
      "name": "Material.001",
      "pbrMetallicRoughness": {
        "baseColorTexture": {
          "index": 0
        },
        "metallicFactor": 0.0,
        "roughnessFactor": 0.8211145618000169
      }
    },
    {
      "doubleSided": true,
      "name": "Material.003",
      "pbrMetallicRoughness": {
        "baseColorFactor": [
          0.00356494,
          0.00496653,
          0.0063663,
          1.0
        ],
        "metallicFactor": 0.0,
        "roughnessFactor": 0.9987587036361582
      }
    },
    {
      "doubleSided": true,
      "name": "Material.002",
      "pbrMetallicRoughness": {
        "baseColorFactor": [
          0.0975132,
          0.106911,
          0.128236,
          1.0
        ],
        "metallicFactor": 0.0,
        "roughnessFactor": 0.9711585443830981
      }
    },
    {
      "doubleSided": true,
      "name": "Material.006",
      "pbrMetallicRoughness": {
        "baseColorTexture": {
          "index": 1
        },
        "metallicFactor": 0.0,
        "roughnessFactor": 0.1105846694513859
      }
    },
    {
      "doubleSided": true,
      "name": "Material.004",
      "pbrMetallicRoughness": {
        "baseColorFactor": [
          0.310813,
          0.310813,
          0.310813,
          1.0
        ],
        "metallicFactor": 0.6158075381986879,
        "roughnessFactor": 0.0
      }
    },
    {
      "doubleSided": true,
      "emissiveFactor": [
        1.0,
        0.01185705241185271,
        0.0
      ],
      "name": "Material.005",
      "pbrMetallicRoughness": {
        "baseColorFactor": [
          0.7999999999999999,
          0.003427450000000003,
          0.0,
          1.0
        ],
        "metallicFactor": 0.0,
        "roughnessFactor": 0.9614208257584118
      }
    }
  ],
  "meshes": [
    {
      "name": "Cube_Material.001_0",
      "primitives": [
        {
          "attributes": {
            "NORMAL": 1,
            "POSITION": 0,
            "TEXCOORD_0": 2
          },
          "indices": 3,
          "material": 0,
          "mode": 4
        }
      ]
    },
    {
      "name": "Cube.008_Material.001_0",
      "primitives": [
        {
          "attributes": {
            "NORMAL": 5,
            "POSITION": 4,
            "TEXCOORD_0": 6
          },
          "indices": 7,
          "material": 0,
          "mode": 4
        }
      ]
    },
    {
      "name": "Cube.011_Material.003_0",
      "primitives": [
        {
          "attributes": {
            "NORMAL": 9,
            "POSITION": 8,
            "TEXCOORD_0": 10
          },
          "indices": 11,
          "material": 1,
          "mode": 4
        }
      ]
    },
    {
      "name": "Cylinder_Material.002_0",
      "primitives": [
        {
          "attributes": {
            "NORMAL": 13,
            "POSITION": 12,
            "TEXCOORD_0": 14
          },
          "indices": 15,
          "material": 2,
          "mode": 4
        }
      ]
    },
    {
      "name": "Cube.012_Material.003_0",
      "primitives": [
        {
          "attributes": {
            "NORMAL": 17,
            "POSITION": 16,
            "TEXCOORD_0": 18
          },
          "indices": 19,
          "material": 1,
          "mode": 4
        }
      ]
    },
    {
      "name": "Cube.012_Material.002_0",
      "primitives": [
        {
          "attributes": {
            "NORMAL": 21,
            "POSITION": 20,
            "TEXCOORD_0": 22
          },
          "indices": 23,
          "material": 2,
          "mode": 4
        }
      ]
    },
    {
      "name": "Cube.012_Material.006_0",
      "primitives": [
        {
          "attributes": {
            "NORMAL": 25,
            "POSITION": 24,
            "TEXCOORD_0": 26
          },
          "indices": 27,
          "material": 3,
          "mode": 4
        }
      ]
    },
    {
      "name": "Text_Material.004_0",
      "primitives": [
        {
          "attributes": {
            "NORMAL": 29,
            "POSITION": 28,
            "TEXCOORD_0": 30
          },
          "indices": 31,
          "material": 4,
          "mode": 4
        }
      ]
    },
    {
      "name": "Cube.013_Material.003_0",
      "primitives": [
        {
          "attributes": {
            "NORMAL": 33,
            "POSITION": 32,
            "TEXCOORD_0": 34
          },
          "indices": 35,
          "material": 1,
          "mode": 4
        }
      ]
    },
    {
      "name": "Cylinder.001_Material.005_0",
      "primitives": [
        {
          "attributes": {
            "NORMAL": 37,
            "POSITION": 36,
            "TEXCOORD_0": 38
          },
          "indices": 39,
          "material": 5,
          "mode": 4
        }
      ]
    },
    {
      "name": "Cylinder.001_Material.003_0",
      "primitives": [
        {
          "attributes": {
            "NORMAL": 41,
            "POSITION": 40,
            "TEXCOORD_0": 42
          },
          "indices": 43,
          "material": 1,
          "mode": 4
        }
      ]
    },
    {
      "name": "Cylinder.002_Material.003_0",
      "primitives": [
        {
          "attributes": {
            "NORMAL": 45,
            "POSITION": 44,
            "TEXCOORD_0": 46
          },
          "indices": 47,
          "material": 1,
          "mode": 4
        }
      ]
    }
  ],
  "nodes": [
    {
      "children": [
        1
      ],
      "matrix": [
        1.0,
        0.0,
        0.0,
        0.0,
        0.0,
        2.220446049250313e-16,
        -1.0,
        0.0,
        0.0,
        1.0,
        2.220446049250313e-16,
        0.0,
        0.0,
        0.0,
        0.0,
        1.0
      ],
      "name": "Sketchfab_model"
    },
    {
      "children": [
        2
      ],
      "matrix": [
        0.009999999776482582,
        0.0,
        0.0,
        0.0,
        0.0,
        0.0,
        0.009999999776482582,
        0.0,
        0.0,
        -0.009999999776482582,
        0.0,
        0.0,
        0.0,
        0.0,
        0.0,
        1.0
      ],
      "name": "e7d51c8cbe80486fa651dabd38d8c265.fbx"
    },
    {
      "children": [
        3,
        5,
        7,
        9,
        11,
        15,
        17,
        19,
        22
      ],
      "name": "RootNode"
    },
    {
      "children": [
        4
      ],
      "matrix": [
        100.0,
        0.0,
        0.0,
        0.0,
        0.0,
        -1.629206793918314e-05,
        -99.99999999999868,
        0.0,
        0.0,
        99.99999999999868,
        -1.629206793918314e-05,
        0.0,
        0.0,
        0.0,
        0.0,
        1.0
      ],
      "name": "Cube"
    },
    {
      "mesh": 0,
      "name": "Cube_Material.001_0"
    },
    {
      "children": [
        6
      ],
      "matrix": [
        7.549789948768648e-06,
        -99.99999999999973,
        0.0,
        0.0,
        7.549789954319763e-06,
        5.551115123125783e-13,
        -99.99999999999973,
        0.0,
        99.99999999999945,
        7.549789954319763e-06,
        7.549789948768648e-06,
        0.0,
        36.026947021484375,
        75.55672454833984,
        222.810791015625,
        1.0
      ],
      "name": "Cube.008"
    },
    {
      "mesh": 1,
      "name": "Cube.008_Material.001_0"
    },
    {
      "children": [
        8
      ],
      "matrix": [
        100.0,
        0.0,
        0.0,
        0.0,
        0.0,
        -1.629206793918314e-05,
        -99.99999999999868,
        0.0,
        0.0,
        99.99999999999868,
        -1.629206793918314e-05,
        0.0,
        0.0,
        72.72500610351563,
        -32.17696762084961,
        1.0
      ],
      "name": "Cube.011"
    },
    {
      "mesh": 2,
      "name": "Cube.011_Material.003_0"
    },
    {
      "children": [
        10
      ],
      "matrix": [
        100.0,
        0.0,
        0.0,
        0.0,
        0.0,
        -1.629206793918314e-05,
        -99.99999999999868,
        0.0,
        0.0,
        99.99999999999868,
        -1.629206793918314e-05,
        0.0,
        0.0,
        74.25540924072266,
        -16.21775245666504,
        1.0
      ],
      "name": "Cylinder"
    },
    {
      "mesh": 3,
      "name": "Cylinder_Material.002_0"
    },
    {
      "children": [
        12,
        13,
        14
      ],
      "matrix": [
        100.0,
        0.0,
        0.0,
        0.0,
        0.0,
        -1.629206793918314e-05,
        -99.99999999999868,
        0.0,
        0.0,
        99.99999999999868,
        -1.629206793918314e-05,
        0.0,
        0.0,
        108.22303009033203,
        -25.026708602905273,
        1.0
      ],
      "name": "Cube.012"
    },
    {
      "mesh": 4,
      "name": "Cube.012_Material.003_0"
    },
    {
      "mesh": 5,
      "name": "Cube.012_Material.002_0"
    },
    {
      "mesh": 6,
      "name": "Cube.012_Material.006_0"
    },
    {
      "children": [
        16
      ],
      "matrix": [
        100.0,
        0.0,
        0.0,
        0.0,
        0.0,
        99.9999999999999,
        4.371138828673792e-06,
        0.0,
        0.0,
        -4.371138828673792e-06,
        99.9999999999999,
        0.0,
        -9.201759338378906,
        97.05340576171875,
        -10.614730834960938,
        1.0
      ],
      "name": "Text"
    },
    {
      "mesh": 7,
      "name": "Text_Material.004_0"
    },
    {
      "children": [
        18
      ],
      "matrix": [
        96.37109737818174,
        -2.775557773321128e-15,
        -26.6948144028756,
        0.0,
        -26.694814402875576,
        -4.371139339800917e-06,
        -96.37109737818164,
        0.0,
        -1.1668673527420736e-06,
        99.9999999999999,
        -4.212514315149463e-06,
        0.0,
        61.72660446166992,
        78.61241149902344,
        57.628334045410156,
        1.0
      ],
      "name": "Cube.013"
    },
    {
      "mesh": 8,
      "name": "Cube.013_Material.003_0"
    },
    {
      "children": [
        20,
        21
      ],
      "matrix": [
        8.399035951690736,
        -94.92137480931638,
        30.321424758600752,
        0.0,
        -25.339108795076527,
        -31.463194439044308,
        -91.47675639834509,
        0.0,
        96.3710836327655,
        -1.3150461541933112e-05,
        -26.69483544520075,
        0.0,
        61.13725280761719,
        80.1554946899414,
        55.48508834838867,
        1.0
      ],
      "name": "Cylinder.001"
    },
    {
      "mesh": 9,
      "name": "Cylinder.001_Material.005_0"
    },
    {
      "mesh": 10,
      "name": "Cylinder.001_Material.003_0"
    },
    {
      "children": [
        23
      ],
      "matrix": [
        100.0,
        0.0,
        0.0,
        0.0,
        0.0,
        99.9999999999999,
        4.371138828673792e-06,
        0.0,
        0.0,
        -4.371138828673792e-06,
        99.9999999999999,
        0.0,
        59.83234786987305,
        72.58232879638672,
        -3.4109578132629395,
        1.0
      ],
      "name": "Cylinder.002"
    },
    {
      "mesh": 11,
      "name": "Cylinder.002_Material.003_0"
    }
  ],
  "samplers": [
    {
      "magFilter": 9729,
      "minFilter": 9987,
      "wrapS": 10497,
      "wrapT": 10497
    }
  ],
  "scene": 0,
  "scenes": [
    {
      "name": "Sketchfab_Scene",
      "nodes": [
        0
      ]
    }
  ],
  "textures": [
    {
      "sampler": 0,
      "source": 0
    },
    {
      "sampler": 0,
      "source": 1
    }
  ]
}
